{"title":"Men.In.Black.1997.720p.BRRip.XviD.AC3-anoXmous","uid":6889376,"size":1470889844,"categoryP":"video","categoryS":"hd___movies","magnet":"?xt=urn:btih:6ef87bec3c155ea2e54e0684ee6234ae4f24ba0b&amp;dn=Men.In.Black.1997.720p.BRRip.XviD.AC3-anoXmous&amp;tr=udp%3A%2F%2Ftracker.openbittorrent.com%3A80&amp;tr=udp%3A%2F%2Fopen.demonii.com%3A1337&amp;tr=udp%3A%2F%2Ftracker.coppersurfer.tk%3A6969&amp;tr=udp%3A%2F%2Fexodus.desync.com%3A6969","seeders":0,"leechers":0,"uploader":"anoXmous","files":-1,"time":1323908905,"description":"Men.In.Black.1997.720p.BRRip.XviD.AC3-anoXmous\n\nFormat                           : AVI\nFormat/Info                      : Audio Video Interleave\nFile size                        : 1.37 GiB\nDuration                         : 1h 37mn\nOverall bit rate                 : 2 001 Kbps\n\nVideo\nID                               : 0\nFormat                           : MPEG-4 Visual\nFormat profile                   : Advanced Simple@L5\nFormat settings, BVOP            : 2\nFormat settings, QPel            : No\nFormat settings, GMC             : No warppoints\nFormat settings, Matrix          : Default (H.263)\nCodec ID                         : XVID\nCodec ID/Hint                    : XviD\nDuration                         : 1h 37mn\nBit rate                         : 1 770 Kbps\nWidth                            : 1 280 pixels\nHeight                           : 688 pixels\nDisplay aspect ratio             : 16:9\nFrame rate                       : 23.976 fps\nColor space                      : YUV\nChroma subsampling               : 4:2:0\nBit depth                        : 8 bits\nScan type                        : Progressive\nCompression mode                 : Lossy\nBits/(Pixel*Frame)               : 0.084\nStream size                      : 1.21 GiB (88%)\nWriting library                  : XviD 1.2.1 (UTC 2008-12-04)\n\nAudio\nID                               : 1\nFormat                           : AC-3\nFormat/Info                      : Audio Coding 3\nMode extension                   : CM (complete main)\nCodec ID                         : 2000\nDuration                         : 1h 37mn\nBit rate mode                    : Constant\nBit rate                         : 224 Kbps\nChannel(s)                       : 6 channels\nChannel positions                : Front: L C R, Side: L R, LFE\nSampling rate                    : 48.0 KHz\nBit depth                        : 16 bits\nCompression mode                 : Lossy\nStream size                      : 157 MiB (11%)\nAlignment                        : Aligned on interleaves\nInterleave, duration             : 64 ms (1.53 video frames)\nInterleave, preload duration     : 192 ms\n\n                              SUB:\nMen.In.Black.1997.720p.BRRip.XviD.AC3-anoXmous_swe.srt\n &lt;a href=&quot;\nhttp://www.imdb.com/title/tt0119654/&quot; rel=&quot;nofollow&quot; target=&quot;_NEW&quot;&gt;\nhttp://www.imdb.com/title/tt0119654/&lt;/a&gt;\n","torrent":{"xt":"urn:btih:6ef87bec3c155ea2e54e0684ee6234ae4f24ba0b","amp;dn":"Men.In.Black.1997.720p.BRRip.XviD.AC3-anoXmous","amp;tr":["udp%3A%2F%2Ftracker.openbittorrent.com%3A80","udp%3A%2F%2Fopen.demonii.com%3A1337","udp%3A%2F%2Ftracker.coppersurfer.tk%3A6969","udp%3A%2F%2Fexodus.desync.com%3A6969"],"infoHash":"6ef87bec3c155ea2e54e0684ee6234ae4f24ba0b","infoHashBuffer":{"type":"Buffer","data":[110,248,123,236,60,21,94,162,229,78,6,132,238,98,52,174,79,36,186,11]},"announce":[],"urlList":[]}}